<?xml version="1.0" encoding="UTF-8"?>
<svg xmlns="http://www.w3.org/2000/svg" id="Layer_1" data-name="Layer 1" viewBox="0 0 24 24">
  <path d="M23.183,4.238l-3.194,2.762v-2H11.932c-3.86,0-7,3.14-7,7,0,1.487,.47,2.865,1.264,4H2.773c-.538-1.226-.841-2.578-.841-4C1.932,6.486,6.418,2,11.932,2h8.058V0l3.194,2.785c.432,.388,.432,1.065,0,1.453ZM7.5,12.4v1.6h1.201c.442,1.609,1.902,2.8,3.649,2.8s3.207-1.191,3.649-2.8h-1.701c-.366,.709-1.097,1.2-1.948,1.2s-1.583-.491-1.948-1.2h2.098v-1.6h-2.349v-.8h2.349v-1.6h-2.098c.366-.709,1.097-1.2,1.948-1.2s1.583,.491,1.948,1.2h1.701c-.442-1.608-1.902-2.8-3.649-2.8s-3.207,1.191-3.649,2.8h-1.201v1.6h1.051v.8h-1.051Zm13.591-4.4h-3.423c.794,1.135,1.263,2.513,1.263,4h0c0,3.859-3.14,7-7,7H4.01v-2l-3.194,2.762c-.432,.388-.432,1.065,0,1.453l3.194,2.785v-2h7.922c5.514,0,10-4.486,10-10h0c0-1.422-.303-2.774-.841-4Z"/>
</svg>
